<svg xmlns="http://www.w3.org/2000/svg" viewBox="0 0 345.14 125.78"><g id="Layer_2" data-name="Layer 2"><g id="Layer_1-2" data-name="Layer 1"><path d="M168.61,76.1c0,4.61-1.52,8.52-5.41,11.13-3.17,2.13-6.57,3.9-9.82,5.91s-6.26,4-9.42,6c-3.34,2.07-6.75,4-10.1,6.09-3,1.85-5.9,3.81-8.88,5.67q-11.17,6.93-22.39,13.8c-.61.37-1.3.62-2.26,1.08v-3c0-10.29.1-20.58-.09-30.86,0-2.31.79-3.28,2.63-4.34,4.7-2.71,9.23-5.72,13.85-8.57s9.33-5.7,14-8.55c2.45-1.49,4.91-3,7.33-4.5,1.37-.88,1.41-1.58,0-2.55-1.83-1.29-3.79-2.38-5.69-3.55q-4.8-3-9.62-5.95c-3.81-2.33-7.65-4.62-11.45-7-3.58-2.2-7.17-4.38-10.65-6.73a3.51,3.51,0,0,1-1.26-2.51c-.08-11.09-.06-22.17,0-33.26,0-1.82.25-2,1.93-1.19,2,1,4,2.26,5.93,3.4,2.62,1.51,5.29,2.94,7.84,4.54,3.55,2.24,7,4.67,10.52,6.9,3.27,2.06,6.66,3.93,10,5.94,3.14,1.9,6.26,3.85,9.37,5.8l14.28,9c1.44.91,3,1.66,4.31,2.69,3.94,3.07,5.23,7.46,5.3,12.14C168.94,61.18,168.65,68.64,168.61,76.1Z" style="fill:#198fc3"/><path d="M301.74,44.57c0,11.3,0,22.59-.08,33.89,0,2.09-1.16,3.79-3.2,4a34.34,34.34,0,0,1-8.23-.21,5.16,5.16,0,0,1-3.14-2.43c-3.36-5.92-6.5-12-9.75-18-.81-1.49-1.7-2.94-2.54-4.42-.21-.36-.34-.75-.51-1.12l-.64.44c0,.61-.09,1.22-.09,1.84q0,10.95,0,21.9c0,2.13-.09,2.2-2.29,2.2h-6.08c-1.32,0-1.93-.62-1.93-2,0-11.14,0-22.28,0-33.41,0-2.78,1.64-4.31,4.43-4.33,1.81,0,3.63.13,5.43,0,2.71-.22,4.34,1.22,5.49,3.34,3.88,7.15,7.68,14.34,11.52,21.51A2.67,2.67,0,0,0,291.3,69c0-.55.08-1.1.08-1.65,0-7.46.05-14.92,0-22.38,0-1.56.52-2.07,2-2,2.24.09,4.48.06,6.72,0C301.24,43,301.75,43.38,301.74,44.57Z"/><path d="M212.67,62.66a3.9,3.9,0,0,1-.54-.66,5.08,5.08,0,0,1,.49-.64c3.69-3.37,3.28-7.84,2.43-11.91-.88-4.23-4.69-6.3-9.58-6.42-6.92-.18-13.85-.05-20.77,0-2.08,0-2.14.07-2.13,2.18q0,17.34.05,34.67c0,2.44.39,2.86,2.91,2.87,7,0,14,0,20.93,0a11.14,11.14,0,0,0,3.43-.6c5-1.67,6.77-4.14,6.78-9.35,0-.37,0-.74,0-1.11A9.29,9.29,0,0,0,212.67,62.66ZM193,51.55c0-.46.78-1.25,1.18-1.24,3.12.09,6.24.22,9.32.61.67.09,1.44,1.17,1.75,1.95a3.87,3.87,0,0,1-3.63,5.48c-1.16,0-2.33,0-3.5,0h0c-1.28,0-2.55,0-3.83,0-.9,0-1.39-.24-1.37-1.25C193,55.26,192.9,53.39,193,51.55Zm13.23,20.77A2.55,2.55,0,0,1,203.69,75c-1.59.08-3.19,0-4.79,0v.09c-1.55,0-3.1,0-4.64,0-1,0-1.33-.37-1.31-1.34.05-2.18,0-4.37.06-6.55a1.62,1.62,0,0,1,1.08-1.13c3.09,0,6.19,0,9.27.14a3.07,3.07,0,0,1,2.89,3.07C206.31,70.29,206.31,71.31,206.27,72.32Z"/><path d="M92.45,80.8c0,1.54-.48,2.06-2,2-2.29-.13-4.59-.1-6.88,0-1.5.06-2.09-.45-2.07-2,.07-4.53,0-9.06,0-13.59,0-1.34-.43-1.74-1.74-1.71-3.79.07-7.57.07-11.36,0-1.28,0-1.65.44-1.63,1.67,0,4.52,0,9.05,0,13.58,0,1.51-.47,2.12-2,2.06-2.24-.1-4.48,0-6.72,0-1.82,0-2.24-.5-2.24-2.29,0-11.46,0-22.92,0-34.37C55.87,43,55.93,43,59,43h5.76c2.08,0,2.08,0,2.09,2.15,0,3.63,0,7.25,0,10.87,0,1.17.23,1.74,1.59,1.71,3.83-.08,7.67-.06,11.51,0,1.23,0,1.55-.46,1.53-1.6,0-3.68,0-7.35,0-11,0-2.08,0-2.1,2.18-2.1s4.48.09,6.72,0c1.6-.08,2.13.41,2.11,2.05-.09,6,0,12,0,18.07h0C92.42,69,92.38,74.88,92.45,80.8Z"/><path d="M260.27,80.78c-1.43-3.87-2.76-7.79-4.2-11.66-2.87-7.72-5.81-15.4-8.69-23.11a4.39,4.39,0,0,0-4.13-3c-1.32-.11-2.66,0-4,0h-4a3.78,3.78,0,0,0-3.59,2.23,24.88,24.88,0,0,0-1.07,2.49Q226.52,58.86,222.45,70c-1.33,3.67-2.59,7.38-3.88,11.06-.37,1.08,0,1.65,1.15,1.64h6.88a2.1,2.1,0,0,0,2.21-1.83c.77-2.7,1.72-5.36,2.72-8a1.9,1.9,0,0,1,1.47-.93c4.32-.08,8.64-.06,13,0a1.55,1.55,0,0,1,1.16.77c1,2.64,1.82,5.31,2.7,8a2.46,2.46,0,0,0,2.26,2c2.35.08,4.7.09,7,0C260.2,82.6,260.71,82,260.27,80.78ZM235.05,64c1.42-4.19,2.77-8.19,4.13-12.19l.33-.08c1.36,4,2.71,8,4.14,12.27Z"/><path d="M345.11,81.94a1.65,1.65,0,0,1-1.28.69,50.17,50.17,0,0,1-7.66-.07,5.62,5.62,0,0,1-3.11-2.17c-3.49-4.36-6.82-8.83-10.23-13.26a3.49,3.49,0,0,0-1-1c-1.39-.77-2.22-.29-2.23,1.29,0,4.15,0,8.31,0,12.46,0,2.36-.43,2.76-2.83,2.77-1.49,0-3,0-4.48,0-2.71,0-3.25-.56-3.22-3.32.05-4,.2-8,.21-12,0-7.41,0-14.81,0-22.21,0-2.19,0-2.19,2.24-2.2s4.27,0,6.4,0c1.32,0,1.77.5,1.75,1.8,0,4,0,8,0,12,0,.51.31,1.45.49,1.45A2.59,2.59,0,0,0,322,57.7c3.06-3.67,6-7.42,9-11.16.47-.58.93-1.16,1.34-1.78A3.91,3.91,0,0,1,336.12,43c2.74.11,5.5,0,8.25,0l.3.56c-.78,1.11-1.51,2.25-2.35,3.3Q336.67,54,330.94,61c-.63.77-.49,1.34.11,2.09,3,3.78,6,7.61,8.92,11.42,1.56,2,3.12,4,4.64,6.08C344.89,81,345.25,81.62,345.11,81.94Z"/><path d="M33.79,81c0,.36-.64.92-1.07,1a53.66,53.66,0,0,1-16.65,1.31c-6.26-.48-11.6-2.82-14.51-8.83A13.62,13.62,0,0,1,.21,69.31a100.92,100.92,0,0,1,0-12.78C.65,51,3,46.32,8.41,44a21.55,21.55,0,0,1,6.94-1.55,79,79,0,0,1,10.55,0,63.13,63.13,0,0,1,7.28,1.26c-.32,2.18-.67,4.06-.85,6-.11,1.16-.79,1.21-1.65,1.2q-6.55,0-13.12,0a8,8,0,0,0-2.18.32c-3.2.89-4,3.56-4.14,6.32a96,96,0,0,0,0,10.86c.18,3.34,2.33,7,6.93,6.73s9.28-.13,13.91-.23c1.1,0,1.4.52,1.46,1.44C33.62,77.83,33.8,79.41,33.79,81Z"/><path d="M49.36,70.44c0,3.71-.2,7.43-.44,11.13,0,.42-.91,1.08-1.41,1.11-2.56.11-5.12.08-7.67,0-1.41,0-1.88-.88-1.87-2.24,0-5.91,0-11.82,0-17.74h0V45.16c0-2,.21-2.17,2.23-2.18h6.56c2.1,0,2.29.2,2.28,2.26C49,51.1,48.93,57,49,62.81,49,65.36,49.37,67.9,49.36,70.44Z"/><path d="M139,64.34c-6.79-4.3-12.71-8-17.54-11.07-10.14-6.37-15.25-9.48-15.67-9.74C103.2,42,100.59,40.44,98,38.86a3,3,0,0,1-1.73-2.75c.06-11.47,0-22.94,0-34.41,0-.48.07-1,.13-1.7a15.92,15.92,0,0,1,2.41.91c3.75,2.3,7.44,4.68,11.18,7,5.78,3.54,11.6,7,17.39,10.58s11.44,7.13,17.16,10.68c3.31,2,6.69,4,9.93,6.11,0,0,6.61,3.55,10,7.13a17.92,17.92,0,0,1,1.67,2.08,14.59,14.59,0,0,1,1.4,2.67Z" style="fill:#ea5729"/></g></g></svg>